<svg width="140" height="33" viewBox="0 0 493 114" fill="none" xmlns="http://www.w3.org/2000/svg">
<path d="M28.5469 60.2344H14.5781L14.5312 50.2969H26.4375C28.3125 50.2969 29.8438 49.9844 31.0312 49.3594C32.25 48.7031 33.1406 47.75 33.7031 46.5C34.2969 45.2188 34.5938 43.6719 34.5938 41.8594C34.5938 39.7656 34.3281 38.0938 33.7969 36.8438C33.2656 35.5625 32.4062 34.625 31.2188 34.0312C30.0312 33.4375 28.4844 33.1406 26.5781 33.1406H19.2656V90H5.53125V21.75H26.5781C29.9844 21.75 33.0312 22.125 35.7188 22.875C38.4062 23.625 40.6875 24.7656 42.5625 26.2969C44.4375 27.8281 45.8594 29.7656 46.8281 32.1094C47.8281 34.4531 48.3281 37.2188 48.3281 40.4062C48.3281 43.2188 47.7656 45.8125 46.6406 48.1875C45.5156 50.5625 43.75 52.5 41.3438 54C38.9688 55.5 35.8594 56.3438 32.0156 56.5312L28.5469 60.2344ZM28.0781 90H10.6875L16.1719 78.6562H28.0781C29.8906 78.6562 31.3594 78.2656 32.4844 77.4844C33.6094 76.7031 34.4219 75.6562 34.9219 74.3438C35.4219 73 35.6719 71.4688 35.6719 69.75C35.6719 67.8125 35.4375 66.125 34.9688 64.6875C34.5312 63.25 33.7969 62.1562 32.7656 61.4062C31.7344 60.625 30.3438 60.2344 28.5938 60.2344H16.7812L16.875 50.2969H31.2188L34.4531 54.2344C38.1094 54.1094 41.0312 54.8125 43.2188 56.3438C45.4062 57.8438 46.9688 59.8125 47.9062 62.25C48.875 64.6562 49.3594 67.2188 49.3594 69.9375C49.3594 74.3125 48.5312 78 46.875 81C45.25 83.9688 42.8594 86.2188 39.7031 87.75C36.5469 89.25 32.6719 90 28.0781 90ZM73.3594 79.7812L84.2812 21.75H91.5L93.6562 30.75L81.9375 90H74.1094L73.3594 79.7812ZM69.6094 21.75L78.4219 79.9219L76.9219 90H68.2969L56.0625 21.75H69.6094ZM101.578 79.6875L110.344 21.75H123.844L111.703 90H103.031L101.578 79.6875ZM95.6719 21.75L106.688 80.1094L105.797 90H97.9688L86.2969 30.6562L88.5 21.75H95.6719ZM163.969 67.2656H177.609C177.422 72.3906 176.391 76.7188 174.516 80.25C172.641 83.75 169.969 86.4062 166.5 88.2188C163.062 90.0312 158.906 90.9375 154.031 90.9375C150.25 90.9375 146.891 90.3125 143.953 89.0625C141.016 87.7812 138.516 85.9062 136.453 83.4375C134.391 80.9688 132.828 77.9219 131.766 74.2969C130.734 70.6406 130.219 66.4375 130.219 61.6875V50.1094C130.219 45.3594 130.766 41.1562 131.859 37.5C132.984 33.8438 134.578 30.7813 136.641 28.3125C138.734 25.8125 141.25 23.9375 144.188 22.6875C147.156 21.4063 150.5 20.7656 154.219 20.7656C159.188 20.7656 163.344 21.7031 166.688 23.5781C170.031 25.4531 172.609 28.1875 174.422 31.7812C176.266 35.3438 177.375 39.7031 177.75 44.8594H164.062C163.969 41.6094 163.594 39.0625 162.938 37.2188C162.312 35.3438 161.312 34.0312 159.938 33.2812C158.562 32.5 156.656 32.1094 154.219 32.1094C152.406 32.1094 150.844 32.4375 149.531 33.0938C148.219 33.7188 147.141 34.7344 146.297 36.1406C145.453 37.5469 144.828 39.3906 144.422 41.6719C144.047 43.9531 143.859 46.7344 143.859 50.0156V61.6875C143.859 64.9062 144.031 67.6562 144.375 69.9375C144.719 72.1875 145.266 74.0312 146.016 75.4688C146.766 76.9062 147.781 77.9531 149.062 78.6094C150.375 79.2656 152.031 79.5938 154.031 79.5938C156.344 79.5938 158.203 79.25 159.609 78.5625C161.047 77.875 162.109 76.6406 162.797 74.8594C163.484 73.0781 163.875 70.5469 163.969 67.2656ZM218.719 67.2656H232.359C232.172 72.3906 231.141 76.7188 229.266 80.25C227.391 83.75 224.719 86.4062 221.25 88.2188C217.812 90.0312 213.656 90.9375 208.781 90.9375C205 90.9375 201.641 90.3125 198.703 89.0625C195.766 87.7812 193.266 85.9062 191.203 83.4375C189.141 80.9688 187.578 77.9219 186.516 74.2969C185.484 70.6406 184.969 66.4375 184.969 61.6875V50.1094C184.969 45.3594 185.516 41.1562 186.609 37.5C187.734 33.8438 189.328 30.7813 191.391 28.3125C193.484 25.8125 196 23.9375 198.938 22.6875C201.906 21.4063 205.25 20.7656 208.969 20.7656C213.938 20.7656 218.094 21.7031 221.438 23.5781C224.781 25.4531 227.359 28.1875 229.172 31.7812C231.016 35.3438 232.125 39.7031 232.5 44.8594H218.812C218.719 41.6094 218.344 39.0625 217.688 37.2188C217.062 35.3438 216.062 34.0312 214.688 33.2812C213.312 32.5 211.406 32.1094 208.969 32.1094C207.156 32.1094 205.594 32.4375 204.281 33.0938C202.969 33.7188 201.891 34.7344 201.047 36.1406C200.203 37.5469 199.578 39.3906 199.172 41.6719C198.797 43.9531 198.609 46.7344 198.609 50.0156V61.6875C198.609 64.9062 198.781 67.6562 199.125 69.9375C199.469 72.1875 200.016 74.0312 200.766 75.4688C201.516 76.9062 202.531 77.9531 203.812 78.6094C205.125 79.2656 206.781 79.5938 208.781 79.5938C211.094 79.5938 212.953 79.25 214.359 78.5625C215.797 77.875 216.859 76.6406 217.547 74.8594C218.234 73.0781 218.625 70.5469 218.719 67.2656Z" fill="white"/>
<path d="M273.406 71.0469C273.406 69.8281 273.297 68.7188 273.078 67.7188C272.859 66.7188 272.391 65.7969 271.672 64.9531C270.984 64.1094 269.969 63.2656 268.625 62.4219C267.312 61.5781 265.594 60.7031 263.469 59.7969C260.938 58.7344 258.484 57.6094 256.109 56.4219C253.734 55.2031 251.594 53.7969 249.688 52.2031C247.781 50.6094 246.266 48.7344 245.141 46.5781C244.047 44.3906 243.5 41.8281 243.5 38.8906C243.5 36.0156 244.016 33.4062 245.047 31.0625C246.109 28.7188 247.609 26.7187 249.547 25.0625C251.484 23.375 253.75 22.0781 256.344 21.1719C258.969 20.2656 261.891 19.8125 265.109 19.8125C269.484 19.8125 273.266 20.7187 276.453 22.5312C279.672 24.3438 282.156 26.8281 283.906 29.9844C285.688 33.1406 286.578 36.7656 286.578 40.8594H272.891C272.891 38.9219 272.609 37.2188 272.047 35.75C271.516 34.25 270.656 33.0781 269.469 32.2344C268.281 31.3906 266.75 30.9688 264.875 30.9688C263.125 30.9688 261.672 31.3281 260.516 32.0469C259.391 32.7344 258.547 33.6875 257.984 34.9062C257.453 36.0938 257.188 37.4375 257.188 38.9375C257.188 40.0625 257.453 41.0781 257.984 41.9844C258.547 42.8594 259.312 43.6562 260.281 44.375C261.25 45.0625 262.391 45.7344 263.703 46.3906C265.047 47.0469 266.516 47.6875 268.109 48.3125C271.203 49.5312 273.938 50.875 276.312 52.3438C278.688 53.7812 280.672 55.4062 282.266 57.2188C283.859 59 285.062 61.0156 285.875 63.2656C286.688 65.5156 287.094 68.0781 287.094 70.9531C287.094 73.7969 286.594 76.3906 285.594 78.7344C284.625 81.0469 283.203 83.0469 281.328 84.7344C279.453 86.3906 277.188 87.6719 274.531 88.5781C271.906 89.4844 268.969 89.9375 265.719 89.9375C262.562 89.9375 259.578 89.5 256.766 88.625C253.953 87.7188 251.469 86.3594 249.312 84.5469C247.188 82.7031 245.516 80.375 244.297 77.5625C243.078 74.7188 242.469 71.3594 242.469 67.4844H256.203C256.203 69.5469 256.406 71.3125 256.812 72.7812C257.219 74.2188 257.844 75.375 258.688 76.25C259.531 77.0938 260.562 77.7344 261.781 78.1719C263.031 78.5781 264.453 78.7812 266.047 78.7812C267.859 78.7812 269.297 78.4375 270.359 77.75C271.453 77.0625 272.234 76.1406 272.703 74.9844C273.172 73.8281 273.406 72.5156 273.406 71.0469ZM323.562 20.75V89H309.922V20.75H323.562ZM340.531 20.75V32.1406H293.281V20.75H340.531ZM367.578 32.9375L352.906 89H338.422L359.75 20.75H368.797L367.578 32.9375ZM379.156 89L364.391 32.9375L363.031 20.75H372.219L393.734 89H379.156ZM379.672 63.5469V74.9375H348.875V63.5469H379.672ZM421.812 20.75V89H408.172V20.75H421.812ZM438.781 20.75V32.1406H391.531V20.75H438.781ZM474.875 71.0469C474.875 69.8281 474.766 68.7188 474.547 67.7188C474.328 66.7188 473.859 65.7969 473.141 64.9531C472.453 64.1094 471.438 63.2656 470.094 62.4219C468.781 61.5781 467.062 60.7031 464.938 59.7969C462.406 58.7344 459.953 57.6094 457.578 56.4219C455.203 55.2031 453.062 53.7969 451.156 52.2031C449.25 50.6094 447.734 48.7344 446.609 46.5781C445.516 44.3906 444.969 41.8281 444.969 38.8906C444.969 36.0156 445.484 33.4062 446.516 31.0625C447.578 28.7188 449.078 26.7187 451.016 25.0625C452.953 23.375 455.219 22.0781 457.812 21.1719C460.438 20.2656 463.359 19.8125 466.578 19.8125C470.953 19.8125 474.734 20.7187 477.922 22.5312C481.141 24.3438 483.625 26.8281 485.375 29.9844C487.156 33.1406 488.047 36.7656 488.047 40.8594H474.359C474.359 38.9219 474.078 37.2188 473.516 35.75C472.984 34.25 472.125 33.0781 470.938 32.2344C469.75 31.3906 468.219 30.9688 466.344 30.9688C464.594 30.9688 463.141 31.3281 461.984 32.0469C460.859 32.7344 460.016 33.6875 459.453 34.9062C458.922 36.0938 458.656 37.4375 458.656 38.9375C458.656 40.0625 458.922 41.0781 459.453 41.9844C460.016 42.8594 460.781 43.6562 461.75 44.375C462.719 45.0625 463.859 45.7344 465.172 46.3906C466.516 47.0469 467.984 47.6875 469.578 48.3125C472.672 49.5312 475.406 50.875 477.781 52.3438C480.156 53.7812 482.141 55.4062 483.734 57.2188C485.328 59 486.531 61.0156 487.344 63.2656C488.156 65.5156 488.562 68.0781 488.562 70.9531C488.562 73.7969 488.062 76.3906 487.062 78.7344C486.094 81.0469 484.672 83.0469 482.797 84.7344C480.922 86.3906 478.656 87.6719 476 88.5781C473.375 89.4844 470.438 89.9375 467.188 89.9375C464.031 89.9375 461.047 89.5 458.234 88.625C455.422 87.7188 452.938 86.3594 450.781 84.5469C448.656 82.7031 446.984 80.375 445.766 77.5625C444.547 74.7188 443.938 71.3594 443.938 67.4844H457.672C457.672 69.5469 457.875 71.3125 458.281 72.7812C458.688 74.2188 459.312 75.375 460.156 76.25C461 77.0938 462.031 77.7344 463.25 78.1719C464.5 78.5781 465.922 78.7812 467.516 78.7812C469.328 78.7812 470.766 78.4375 471.828 77.75C472.922 77.0625 473.703 76.1406 474.172 74.9844C474.641 73.8281 474.875 72.5156 474.875 71.0469Z" fill="#625AC6"/>
</svg>
