<svg width="35" height="35" viewBox="0 0 295 295" fill="none" xmlns="http://www.w3.org/2000/svg">
<circle cx="147.5" cy="147.5" r="147.5" fill="#161D31"/>
<path d="M58.5469 140.234H44.5781L44.5312 130.297H56.4375C58.3125 130.297 59.8438 129.984 61.0312 129.359C62.25 128.703 63.1406 127.75 63.7031 126.5C64.2969 125.219 64.5938 123.672 64.5938 121.859C64.5938 119.766 64.3281 118.094 63.7969 116.844C63.2656 115.562 62.4062 114.625 61.2188 114.031C60.0312 113.438 58.4844 113.141 56.5781 113.141H49.2656V170H35.5312V101.75H56.5781C59.9844 101.75 63.0312 102.125 65.7188 102.875C68.4062 103.625 70.6875 104.766 72.5625 106.297C74.4375 107.828 75.8594 109.766 76.8281 112.109C77.8281 114.453 78.3281 117.219 78.3281 120.406C78.3281 123.219 77.7656 125.812 76.6406 128.188C75.5156 130.562 73.75 132.5 71.3438 134C68.9688 135.5 65.8594 136.344 62.0156 136.531L58.5469 140.234ZM58.0781 170H40.6875L46.1719 158.656H58.0781C59.8906 158.656 61.3594 158.266 62.4844 157.484C63.6094 156.703 64.4219 155.656 64.9219 154.344C65.4219 153 65.6719 151.469 65.6719 149.75C65.6719 147.812 65.4375 146.125 64.9688 144.688C64.5312 143.25 63.7969 142.156 62.7656 141.406C61.7344 140.625 60.3438 140.234 58.5938 140.234H46.7812L46.875 130.297H61.2188L64.4531 134.234C68.1094 134.109 71.0312 134.812 73.2188 136.344C75.4062 137.844 76.9688 139.812 77.9062 142.25C78.875 144.656 79.3594 147.219 79.3594 149.938C79.3594 154.312 78.5312 158 76.875 161C75.25 163.969 72.8594 166.219 69.7031 167.75C66.5469 169.25 62.6719 170 58.0781 170ZM103.359 159.781L114.281 101.75H121.5L123.656 110.75L111.938 170H104.109L103.359 159.781ZM99.6094 101.75L108.422 159.922L106.922 170H98.2969L86.0625 101.75H99.6094ZM131.578 159.688L140.344 101.75H153.844L141.703 170H133.031L131.578 159.688ZM125.672 101.75L136.688 160.109L135.797 170H127.969L116.297 110.656L118.5 101.75H125.672ZM193.969 147.266H207.609C207.422 152.391 206.391 156.719 204.516 160.25C202.641 163.75 199.969 166.406 196.5 168.219C193.062 170.031 188.906 170.938 184.031 170.938C180.25 170.938 176.891 170.312 173.953 169.062C171.016 167.781 168.516 165.906 166.453 163.438C164.391 160.969 162.828 157.922 161.766 154.297C160.734 150.641 160.219 146.438 160.219 141.688V130.109C160.219 125.359 160.766 121.156 161.859 117.5C162.984 113.844 164.578 110.781 166.641 108.312C168.734 105.812 171.25 103.938 174.188 102.688C177.156 101.406 180.5 100.766 184.219 100.766C189.188 100.766 193.344 101.703 196.688 103.578C200.031 105.453 202.609 108.188 204.422 111.781C206.266 115.344 207.375 119.703 207.75 124.859H194.062C193.969 121.609 193.594 119.062 192.938 117.219C192.312 115.344 191.312 114.031 189.938 113.281C188.562 112.5 186.656 112.109 184.219 112.109C182.406 112.109 180.844 112.438 179.531 113.094C178.219 113.719 177.141 114.734 176.297 116.141C175.453 117.547 174.828 119.391 174.422 121.672C174.047 123.953 173.859 126.734 173.859 130.016V141.688C173.859 144.906 174.031 147.656 174.375 149.938C174.719 152.188 175.266 154.031 176.016 155.469C176.766 156.906 177.781 157.953 179.062 158.609C180.375 159.266 182.031 159.594 184.031 159.594C186.344 159.594 188.203 159.25 189.609 158.562C191.047 157.875 192.109 156.641 192.797 154.859C193.484 153.078 193.875 150.547 193.969 147.266ZM248.719 147.266H262.359C262.172 152.391 261.141 156.719 259.266 160.25C257.391 163.75 254.719 166.406 251.25 168.219C247.812 170.031 243.656 170.938 238.781 170.938C235 170.938 231.641 170.312 228.703 169.062C225.766 167.781 223.266 165.906 221.203 163.438C219.141 160.969 217.578 157.922 216.516 154.297C215.484 150.641 214.969 146.438 214.969 141.688V130.109C214.969 125.359 215.516 121.156 216.609 117.5C217.734 113.844 219.328 110.781 221.391 108.312C223.484 105.812 226 103.938 228.938 102.688C231.906 101.406 235.25 100.766 238.969 100.766C243.938 100.766 248.094 101.703 251.438 103.578C254.781 105.453 257.359 108.188 259.172 111.781C261.016 115.344 262.125 119.703 262.5 124.859H248.812C248.719 121.609 248.344 119.062 247.688 117.219C247.062 115.344 246.062 114.031 244.688 113.281C243.312 112.5 241.406 112.109 238.969 112.109C237.156 112.109 235.594 112.438 234.281 113.094C232.969 113.719 231.891 114.734 231.047 116.141C230.203 117.547 229.578 119.391 229.172 121.672C228.797 123.953 228.609 126.734 228.609 130.016V141.688C228.609 144.906 228.781 147.656 229.125 149.938C229.469 152.188 230.016 154.031 230.766 155.469C231.516 156.906 232.531 157.953 233.812 158.609C235.125 159.266 236.781 159.594 238.781 159.594C241.094 159.594 242.953 159.25 244.359 158.562C245.797 157.875 246.859 156.641 247.547 154.859C248.234 153.078 248.625 150.547 248.719 147.266Z" fill="white"/>
<path d="M55.9023 204.268C55.9023 203.811 55.8613 203.395 55.7793 203.02C55.6973 202.645 55.5215 202.299 55.252 201.982C54.9941 201.666 54.6133 201.35 54.1094 201.033C53.6172 200.717 52.9727 200.389 52.1758 200.049C51.2266 199.65 50.3066 199.229 49.416 198.783C48.5254 198.326 47.7227 197.799 47.0078 197.201C46.293 196.604 45.7246 195.9 45.3027 195.092C44.8926 194.271 44.6875 193.311 44.6875 192.209C44.6875 191.131 44.8809 190.152 45.2676 189.273C45.666 188.395 46.2285 187.645 46.9551 187.023C47.6816 186.391 48.5312 185.904 49.5039 185.564C50.4883 185.225 51.584 185.055 52.791 185.055C54.4316 185.055 55.8496 185.395 57.0449 186.074C58.252 186.754 59.1836 187.686 59.8398 188.869C60.5078 190.053 60.8418 191.412 60.8418 192.947H55.709C55.709 192.221 55.6035 191.582 55.3926 191.031C55.1934 190.469 54.8711 190.029 54.4258 189.713C53.9805 189.396 53.4062 189.238 52.7031 189.238C52.0469 189.238 51.502 189.373 51.0684 189.643C50.6465 189.9 50.3301 190.258 50.1191 190.715C49.9199 191.16 49.8203 191.664 49.8203 192.227C49.8203 192.648 49.9199 193.029 50.1191 193.369C50.3301 193.697 50.6172 193.996 50.9805 194.266C51.3438 194.523 51.7715 194.775 52.2637 195.021C52.7676 195.268 53.3184 195.508 53.916 195.742C55.0762 196.199 56.1016 196.703 56.9922 197.254C57.8828 197.793 58.627 198.402 59.2246 199.082C59.8223 199.75 60.2734 200.506 60.5781 201.35C60.8828 202.193 61.0352 203.154 61.0352 204.232C61.0352 205.299 60.8477 206.271 60.4727 207.15C60.1094 208.018 59.5762 208.768 58.873 209.4C58.1699 210.021 57.3203 210.502 56.3242 210.842C55.3398 211.182 54.2383 211.352 53.0195 211.352C51.8359 211.352 50.7168 211.188 49.6621 210.859C48.6074 210.52 47.6758 210.01 46.8672 209.33C46.0703 208.639 45.4434 207.766 44.9863 206.711C44.5293 205.645 44.3008 204.385 44.3008 202.932H49.4512C49.4512 203.705 49.5273 204.367 49.6797 204.918C49.832 205.457 50.0664 205.891 50.3828 206.219C50.6992 206.535 51.0859 206.775 51.543 206.939C52.0117 207.092 52.5449 207.168 53.1426 207.168C53.8223 207.168 54.3613 207.039 54.7598 206.781C55.1699 206.523 55.4629 206.178 55.6387 205.744C55.8145 205.311 55.9023 204.818 55.9023 204.268ZM102.971 185.406V211H97.8557V185.406H102.971ZM109.334 185.406V189.678H91.6155V185.406H109.334ZM147.737 189.977L142.235 211H136.803L144.801 185.406H148.194L147.737 189.977ZM152.079 211L146.541 189.977L146.032 185.406H149.477L157.545 211H152.079ZM152.272 201.455V205.727H140.723V201.455H152.272ZM196.335 185.406V211H191.219V185.406H196.335ZM202.698 185.406V189.678H184.979V185.406H202.698ZM244.493 204.268C244.493 203.811 244.452 203.395 244.37 203.02C244.288 202.645 244.112 202.299 243.843 201.982C243.585 201.666 243.204 201.35 242.7 201.033C242.208 200.717 241.563 200.389 240.767 200.049C239.817 199.65 238.897 199.229 238.007 198.783C237.116 198.326 236.313 197.799 235.599 197.201C234.884 196.604 234.315 195.9 233.894 195.092C233.483 194.271 233.278 193.311 233.278 192.209C233.278 191.131 233.472 190.152 233.858 189.273C234.257 188.395 234.819 187.645 235.546 187.023C236.272 186.391 237.122 185.904 238.095 185.564C239.079 185.225 240.175 185.055 241.382 185.055C243.022 185.055 244.44 185.395 245.636 186.074C246.843 186.754 247.774 187.686 248.431 188.869C249.099 190.053 249.433 191.412 249.433 192.947H244.3C244.3 192.221 244.194 191.582 243.983 191.031C243.784 190.469 243.462 190.029 243.017 189.713C242.571 189.396 241.997 189.238 241.294 189.238C240.638 189.238 240.093 189.373 239.659 189.643C239.237 189.9 238.921 190.258 238.71 190.715C238.511 191.16 238.411 191.664 238.411 192.227C238.411 192.648 238.511 193.029 238.71 193.369C238.921 193.697 239.208 193.996 239.571 194.266C239.935 194.523 240.362 194.775 240.854 195.021C241.358 195.268 241.909 195.508 242.507 195.742C243.667 196.199 244.692 196.703 245.583 197.254C246.474 197.793 247.218 198.402 247.815 199.082C248.413 199.75 248.864 200.506 249.169 201.35C249.474 202.193 249.626 203.154 249.626 204.232C249.626 205.299 249.438 206.271 249.063 207.15C248.7 208.018 248.167 208.768 247.464 209.4C246.761 210.021 245.911 210.502 244.915 210.842C243.931 211.182 242.829 211.352 241.61 211.352C240.427 211.352 239.308 211.188 238.253 210.859C237.198 210.52 236.267 210.01 235.458 209.33C234.661 208.639 234.034 207.766 233.577 206.711C233.12 205.645 232.892 204.385 232.892 202.932H238.042C238.042 203.705 238.118 204.367 238.27 204.918C238.423 205.457 238.657 205.891 238.974 206.219C239.29 206.535 239.677 206.775 240.134 206.939C240.603 207.092 241.136 207.168 241.733 207.168C242.413 207.168 242.952 207.039 243.351 206.781C243.761 206.523 244.054 206.178 244.229 205.744C244.405 205.311 244.493 204.818 244.493 204.268Z" fill="#625AC6"/>
</svg>
